<?xml version="1.0" encoding="UTF-8"?>
<svg id="Layer_1" data-name="Layer 1" xmlns="http://www.w3.org/2000/svg" viewBox="0 0 512 512">
  <defs>
    <style>
      .cls-1 {
        fill: #fda74a;
      }

      .cls-1, .cls-2, .cls-3, .cls-4, .cls-5 {
        stroke-width: 0px;
      }

      .cls-2 {
        fill: #eaeaea;
      }

      .cls-3 {
        fill: #d0446b;
      }

      .cls-4 {
        fill: #f86345;
      }

      .cls-5 {
        fill: #5b375b;
      }
    </style>
  </defs>
  <circle class="cls-2" cx="255.54" cy="256.54" r="246.41"/>
  <g>
    <path class="cls-3" d="M289.61,148.52c-3.08-2.94-6.65-5-10.52-6.62-1.01-.42-4.17-1.5-6.63-1.93-2.47-.43-5.13-.52-6.35-.47-3.22.13-6.95.84-10.03,3.36h0c-.31.26-.75.26-1.06.01h-.01c-3.08-2.53-6.81-3.24-10.03-3.37-1.22-.05-3.89.04-6.35.47-2.47.43-5.62,1.51-6.63,1.93-3.87,1.62-7.44,3.68-10.52,6.62-11.13,10.62-12.6,29.04-2.82,40.97,7.05,8.6,15.48,15.92,23.43,23.68,2.82,2.75,5.67,5.48,8.55,8.17,2.58,2.41,3.77,3.64,4.91,3.72h0c1.14-.08,2.33-1.31,4.91-3.72,2.88-2.69,5.73-5.42,8.55-8.17,7.95-7.76,16.38-15.08,23.43-23.68,9.78-11.93,8.31-30.35-2.82-40.97ZM279.86,182.96c-6.12,6.24-17.35,16.49-24.32,23.22h0c-6.97-6.73-18.2-16.98-24.32-23.22-6.61-6.74-6.61-17.04-1.64-24.38,4.04-5.97,17.97-8.42,25.93-2.36.01,0,.03,0,.03-.01,0,.01.01.02.03.01,7.97-6.05,21.89-3.6,25.93,2.36,4.97,7.34,4.97,17.65-1.64,24.38Z"/>
    <path class="cls-4" d="M321.3,200.67c-.23-3.31-1.33-6.23-4.63-7.57-3.26-1.32-6.38-.75-8.93,1.73-4.26,4.13-8.45,8.33-12.62,12.54-12.63,12.76-25.26,25.52-37.84,38.34-.68.7-1.2,1.08-1.75,1.08-.55,0-1.07-.39-1.75-1.08-12.58-12.81-25.21-25.58-37.84-38.34-4.17-4.21-8.36-8.41-12.62-12.54-2.55-2.48-5.67-3.05-8.93-1.73-3.3,1.34-4.4,4.27-4.63,7.57-.2,2.87,1.73,4.67,3.53,6.47,10.12,10.13,20.28,20.21,30.4,30.34,8.62,8.63,17.2,17.31,25.8,25.95,1.71,1.71,3.39,3.52,6.04,3.32,2.65.19,4.33-1.61,6.04-3.32,8.61-8.65,17.18-17.32,25.8-25.95,10.12-10.13,20.28-20.22,30.4-30.34,1.79-1.8,3.72-3.6,3.53-6.47Z"/>
    <path class="cls-1" d="M263.08,294.99c-.14-4.69-3.27-7.9-7.54-7.93,0,0,0,0,0,0,0,0,0,0,0,0-4.27.03-7.4,3.24-7.54,7.93-.11,3.81-.04,11.46-.06,11.9-.02.59-.02,7.67.26,11.71.29,4.22,3.63,7.07,7.34,7.13h0c3.71-.06,7.05-2.91,7.34-7.13.28-4.04.27-11.12.26-11.71-.01-.44.06-8.09-.06-11.9Z"/>
    <path class="cls-1" d="M297,269.88c-.15-4.82-3.12-7.74-7.6-7.71-4.54.03-7.81,3.16-7.85,7.86-.06,7.19-.01,14.39.16,21.58.12,5.11,3.24,8.31,7.71,8.27,4.39-.04,7.53-3.45,7.63-8.42.07-3.47.01-6.94.01-10.41-.01,0-.03,0-.04,0,0-3.72.09-7.45-.02-11.17Z"/>
    <path class="cls-3" d="M409.66,222.12c7.15-24.2,7.69-51.31-3.27-74.15-12.05-25.09-31.64-41.59-58.91-48.08-25.84-6.15-49.18-.83-69.37,16.78-3.32,2.89-4.83,5-4.87,7.6-.05,3.31,2.43,6.13,5.69,6.74l1.76.34c1.92.37,3.91-.09,5.48-1.26,2.03-1.51,4.01-2.98,6-4.45,10.72-7.87,22.83-12.35,36.04-11.87,28.69,1.03,50.09,14.36,63.31,40.06,5.36,10.41,7.32,21.71,6.9,33.5l11.25,34.8Z"/>
    <path class="cls-5" d="M409.66,222.24l-11.31-34.91c-3.41-7.76-6.75-15.56-10.3-23.26-3.22-6.97-5.83-14.26-10.63-20.44-7.4-9.55-20.24-12.54-30.45-6.96-11.03,6.02-16.31,19.05-11.87,30.34,4.55,11.57,9.87,22.82,15.19,34.06.63,1.33.99,2.64.99,4.13,0,12.04.08,24.07.1,36.11,0,.89.26,1.84-.22,2.7-.83.11-1.29-.49-1.8-.85-5.39-3.78-11.49-4.6-17.73-3.62-11.97,1.89-21.15,12.79-21.26,25-.1,10.85,0,21.7-.02,32.55,0,2.12,0,4.25-.24,6.34-1.07,9.64-5.93,17.32-12.6,24.04-16.48,16.63-23.55,37-23.75,60.04-.13,14.24-.08,28.48-.1,42.73,0,2.12-.05,4.25.15,6.35.21,2.23,1.27,4.17,3.46,4.96,1.93.69,4.12.1,5.54-1.39.78-.81,1.61-1.57,2.4-2.37,21.26-21.52,42.56-43.01,63.76-64.59,12-12.21,24.62-23.83,35.86-36.75,16.01-18.41,24.22-39.95,24.69-64.33.25-13.22.14-26.45.06-39.68,0-.99.03-9.22.09-10.2ZM393.76,271.85c-.82,22.74-9.44,42.44-25.44,58.71-18.18,18.49-36.51,36.82-54.72,55.27-7.44,7.54-14.72,15.23-22.08,22.84-.39.4-.63,1-1.64,1.13,0-1.53-.02-3.01,0-4.49.18-10.15-.64-20.33,1.05-30.44,2.22-13.3,7.68-25.01,16.8-34.99,2.97-3.25,5.95-6.5,8.8-9.86,6.27-7.39,9.35-16.12,9.57-25.67.3-13.13.04-26.27.11-39.41.04-6.89,5.91-11.25,12.47-9.41,4.09,1.15,6.77,4.5,6.89,9.01.17,6.44.23,12.88.24,19.32.01,12.37-.06,24.75-.05,37.12,0,1.77.01,3.59.4,5.31.62,2.75,3.2,4.81,5.79,4.99,2.91.2,5.94-1.67,7.4-4.5,1.1-2.14.96-4.44.97-6.72.01-14.66.03-29.33-.04-43.99,0-1.87.43-3.1,2.06-4.18,3.65-2.43,4.83-6.21,4.83-10.38.04-19.92.02-39.83.03-59.75,0-2.29-.97-4.28-1.87-6.28-4.53-10.12-9.13-20.2-13.61-30.34-1.29-2.91-2.83-5.79-1.81-9.24.95-3.21,2.89-5.4,6.1-6.17,3.5-.84,6.54.14,8.8,3.07.56.73,1.05,1.54,1.45,2.38,8.76,18.7,17.06,37.6,25.37,56.5,1.57,3.58,2.32,7.36,2.3,11.35-.08,16.27.46,32.56-.13,48.81Z"/>
    <path class="cls-1" d="M214.08,269.88c.15-4.82,3.12-7.74,7.6-7.71,4.54.03,7.81,3.16,7.85,7.86.06,7.19.01,14.39-.16,21.58-.12,5.11-3.24,8.31-7.71,8.27-4.39-.04-7.53-3.45-7.63-8.42-.07-3.47-.01-6.94-.01-10.41.01,0,.03,0,.04,0,0-3.72-.09-7.45.02-11.17Z"/>
    <path class="cls-3" d="M112.66,187.32c-.43-11.78,1.54-23.08,6.9-33.5,13.22-25.7,34.62-39.03,63.31-40.06,13.21-.48,25.31,4,36.04,11.87,1.99,1.46,3.97,2.94,6,4.45,1.57,1.17,3.56,1.63,5.48,1.26l1.76-.34c3.25-.62,5.74-3.43,5.69-6.74-.04-2.59-1.56-4.7-4.87-7.6-20.2-17.61-43.54-22.93-69.37-16.78-27.27,6.49-46.86,22.99-58.91,48.08-10.97,22.84-10.42,49.95-3.27,74.15l11.25-34.8Z"/>
    <path class="cls-5" d="M101.51,232.44c-.07,13.23-.19,26.45.06,39.68.47,24.38,8.68,45.92,24.69,64.33,11.24,12.93,23.87,24.54,35.86,36.75,21.2,21.58,42.5,43.07,63.76,64.59.79.8,1.62,1.56,2.4,2.37,1.42,1.48,3.6,2.08,5.54,1.39,2.19-.79,3.25-2.73,3.46-4.96.2-2.1.15-4.23.15-6.35-.02-14.24.02-28.48-.1-42.73-.2-23.04-7.27-43.41-23.75-60.04-6.66-6.72-11.53-14.4-12.6-24.04-.23-2.1-.24-4.23-.24-6.34-.02-10.85.08-21.7-.02-32.55-.12-12.21-9.3-23.11-21.26-25-6.25-.99-12.34-.16-17.73,3.62-.51.36-.97.96-1.8.85-.48-.86-.22-1.8-.22-2.7.03-12.04.1-24.07.1-36.11,0-1.49.36-2.8.99-4.13,5.32-11.24,10.64-22.49,15.19-34.06,4.44-11.28-.85-24.31-11.87-30.34-10.22-5.58-23.06-2.58-30.45,6.96-4.79,6.18-7.41,13.47-10.63,20.44-3.55,7.7-6.89,15.49-10.3,23.26l-11.31,34.91c.06.97.1,9.2.09,10.2ZM117.19,223.04c-.02-3.99.72-7.76,2.3-11.35,8.3-18.9,16.6-37.81,25.37-56.5.39-.84.88-1.65,1.45-2.38,2.25-2.92,5.3-3.91,8.8-3.07,3.21.77,5.15,2.96,6.1,6.17,1.02,3.45-.53,6.33-1.81,9.24-4.48,10.14-9.08,20.22-13.61,30.34-.9,2-1.87,3.99-1.87,6.28.01,19.92,0,39.83.03,59.75,0,4.17,1.19,7.94,4.83,10.38,1.63,1.09,2.07,2.31,2.06,4.18-.08,14.66-.05,29.33-.04,43.99,0,2.28-.13,4.58.97,6.72,1.45,2.83,4.48,4.7,7.4,4.5,2.59-.18,5.17-2.24,5.79-4.99.38-1.71.4-3.53.4-5.31,0-12.37-.07-24.75-.05-37.12,0-6.44.06-12.88.24-19.32.12-4.52,2.8-7.87,6.89-9.01,6.56-1.84,12.43,2.51,12.47,9.41.07,13.14-.19,26.28.11,39.41.22,9.55,3.3,18.28,9.57,25.67,2.85,3.36,5.83,6.61,8.8,9.86,9.12,9.98,14.57,21.68,16.8,34.99,1.69,10.11.87,20.29,1.05,30.44.03,1.48,0,2.96,0,4.49-1-.13-1.25-.73-1.64-1.13-7.36-7.61-14.65-15.3-22.08-22.84-18.21-18.45-36.55-36.78-54.72-55.27-16-16.27-24.62-35.97-25.44-58.71-.59-16.25-.05-32.54-.13-48.81Z"/>
  </g>
</svg>