<?xml version="1.0" encoding="UTF-8"?>
<svg id="Layer_1" data-name="Layer 1" xmlns="http://www.w3.org/2000/svg" viewBox="0 0 1448.3 396.19">
  <defs>
    <style>
      .cls-1 {
        fill: #fff;
        stroke-width: 0px;
      }
    </style>
  </defs>
  <g>
    <path class="cls-1" d="M222.46,58.77c-3.54-3.38-7.65-5.75-12.1-7.61-1.16-.49-4.79-1.73-7.63-2.22-2.84-.5-5.91-.6-7.31-.54-3.7.15-8,.97-11.54,3.87h0c-.35.29-.86.3-1.22.01h-.02c-3.54-2.91-7.84-3.72-11.54-3.88-1.4-.06-4.47.05-7.31.54-2.84.5-6.46,1.74-7.63,2.22-4.45,1.86-8.56,4.23-12.1,7.61-12.8,12.21-14.49,33.4-3.24,47.13,8.11,9.9,17.81,18.32,26.95,27.24,3.25,3.17,6.53,6.3,9.84,9.4,2.96,2.77,4.34,4.19,5.65,4.28h0c1.31-.09,2.68-1.51,5.65-4.28,3.31-3.1,6.59-6.23,9.84-9.4,9.15-8.92,18.85-17.34,26.96-27.24,11.25-13.73,9.56-34.92-3.24-47.13ZM211.25,98.39c-7.04,7.18-19.96,18.97-27.97,26.71h-.01c-8.01-7.74-20.93-19.53-27.97-26.71-7.6-7.75-7.61-19.6-1.88-28.05,4.65-6.86,20.67-9.68,29.83-2.72.01,0,.03,0,.03-.01,0,.02.02.02.03.01,9.16-6.96,25.18-4.15,29.83,2.72,5.72,8.45,5.71,20.3-1.88,28.05Z"/>
    <path class="cls-1" d="M258.92,118.76c-.26-3.8-1.53-7.17-5.32-8.71-3.75-1.52-7.34-.86-10.27,1.99-4.9,4.75-9.71,9.58-14.51,14.43-14.53,14.68-29.06,29.36-43.53,44.1-.79.8-1.38,1.24-2.01,1.25-.63,0-1.23-.45-2.01-1.25-14.47-14.74-29-29.42-43.53-44.1-4.8-4.85-9.62-9.68-14.51-14.43-2.94-2.85-6.53-3.51-10.27-1.99-3.8,1.54-5.06,4.91-5.32,8.71-.23,3.3,1.99,5.37,4.06,7.44,11.64,11.65,23.33,23.25,34.97,34.9,9.92,9.93,19.78,19.91,29.68,29.85,1.96,1.97,3.9,4.04,6.95,3.82,3.05.22,4.99-1.85,6.95-3.82,9.9-9.95,19.76-19.93,29.68-29.85,11.64-11.65,23.32-23.26,34.97-34.9,2.06-2.07,4.28-4.14,4.06-7.44Z"/>
    <path class="cls-1" d="M191.94,227.26c-.16-5.39-3.76-9.08-8.67-9.12,0,0,0,0,0,0,0,0,0,0,0,0-4.91.04-8.52,3.73-8.67,9.12-.13,4.38-.05,13.19-.06,13.69-.02.67-.03,8.82.29,13.47.34,4.86,4.18,8.13,8.45,8.2h0c4.26-.07,8.11-3.35,8.45-8.2.32-4.65.31-12.79.29-13.47-.01-.5.06-9.31-.06-13.69Z"/>
    <path class="cls-1" d="M230.96,198.37c-.17-5.54-3.58-8.91-8.74-8.87-5.23.04-8.99,3.63-9.03,9.04-.07,8.28-.01,16.56.19,24.83.14,5.88,3.73,9.56,8.87,9.51,5.04-.04,8.66-3.97,8.78-9.68.08-3.99.02-7.98.02-11.98-.02,0-.03,0-.05,0,0-4.28.11-8.57-.03-12.85Z"/>
    <path class="cls-1" d="M360.56,143.44c8.22-27.84,8.85-59.02-3.77-85.3-13.86-28.87-36.39-47.84-67.76-55.31-29.72-7.08-56.57-.96-79.8,19.3-3.82,3.33-5.56,5.75-5.61,8.74-.06,3.81,2.8,7.05,6.54,7.76l2.03.39c2.21.42,4.5-.11,6.31-1.45,2.33-1.74,4.61-3.43,6.91-5.11,12.33-9.06,26.26-14.2,41.45-13.65,33,1.19,57.62,16.52,72.83,46.08,6.16,11.98,8.42,24.98,7.93,38.53l12.94,40.03Z"/>
    <path class="cls-1" d="M360.56,143.58l-13.01-40.16c-3.92-8.93-7.76-17.9-11.85-26.75-3.7-8.02-6.71-16.4-12.23-23.52-8.51-10.98-23.28-14.43-35.03-8.01-12.68,6.93-18.76,21.92-13.66,34.9,5.23,13.31,11.36,26.25,17.48,39.18.73,1.53,1.14,3.03,1.14,4.75,0,13.85.09,27.69.12,41.54,0,1.03.3,2.11-.26,3.1-.95.13-1.48-.56-2.07-.98-6.2-4.35-13.21-5.3-20.4-4.16-13.77,2.17-24.33,14.72-24.46,28.76-.12,12.48,0,24.97-.02,37.45,0,2.43,0,4.88-.28,7.3-1.23,11.09-6.83,19.92-14.49,27.65-18.96,19.13-27.09,42.56-27.32,69.07-.14,16.38-.1,32.77-.12,49.15,0,2.44-.06,4.89.17,7.31.24,2.57,1.46,4.8,3.98,5.71,2.23.8,4.73.11,6.37-1.6.9-.93,1.85-1.81,2.76-2.73,24.46-24.76,48.96-49.48,73.35-74.3,13.8-14.05,28.32-27.41,41.25-42.28,18.42-21.18,27.86-45.96,28.4-74,.29-15.21.16-30.43.07-45.64,0-1.14.04-10.61.1-11.73ZM342.27,200.64c-.94,26.16-10.86,48.82-29.27,67.54-20.91,21.27-42,42.35-62.95,63.58-8.56,8.67-16.93,17.52-25.4,26.27-.45.46-.73,1.15-1.88,1.3,0-1.76-.03-3.46,0-5.17.2-11.68-.74-23.38,1.2-35.01,2.56-15.3,8.83-28.77,19.32-40.25,3.42-3.74,6.85-7.48,10.13-11.34,7.21-8.5,10.75-18.54,11-29.53.35-15.1.04-30.22.13-45.33.04-7.93,6.79-12.94,14.34-10.82,4.71,1.32,7.79,5.17,7.93,10.37.2,7.41.26,14.82.27,22.22.02,14.23-.07,28.47-.06,42.7,0,2.04.02,4.13.46,6.1.71,3.16,3.68,5.53,6.66,5.74,3.35.24,6.84-1.93,8.51-5.18,1.27-2.46,1.11-5.11,1.11-7.73.01-16.87.04-33.73-.05-50.6-.01-2.15.5-3.56,2.37-4.81,4.2-2.8,5.55-7.14,5.56-11.94.04-22.91.02-45.82.03-68.73,0-2.63-1.12-4.92-2.15-7.22-5.21-11.64-10.5-23.24-15.66-34.9-1.48-3.34-3.26-6.66-2.08-10.63,1.09-3.69,3.32-6.21,7.01-7.1,4.02-.97,7.53.16,10.12,3.53.65.84,1.21,1.78,1.66,2.74,10.08,21.51,19.63,43.25,29.18,65,1.81,4.12,2.66,8.47,2.64,13.05-.09,18.72.53,37.46-.15,56.15Z"/>
    <path class="cls-1" d="M135.57,198.37c.17-5.54,3.58-8.91,8.74-8.87,5.23.04,8.99,3.63,9.03,9.04.07,8.28.01,16.56-.19,24.83-.14,5.88-3.73,9.56-8.87,9.51-5.04-.04-8.66-3.97-8.78-9.68-.08-3.99-.02-7.98-.02-11.98.02,0,.03,0,.05,0,0-4.28-.11-8.57.03-12.85Z"/>
    <path class="cls-1" d="M18.91,103.4c-.49-13.55,1.77-26.55,7.93-38.53,15.21-29.56,39.83-44.89,72.83-46.08,15.2-.55,29.12,4.6,41.45,13.65,2.29,1.68,4.57,3.38,6.91,5.11,1.81,1.34,4.1,1.87,6.31,1.45l2.03-.39c3.74-.71,6.6-3.95,6.54-7.76-.05-2.98-1.79-5.41-5.61-8.74C134.07,1.87,107.22-4.25,77.5,2.83,46.13,10.3,23.6,29.27,9.74,58.14c-12.61,26.27-11.99,57.46-3.77,85.3l12.94-40.03Z"/>
    <path class="cls-1" d="M6.08,155.3c-.08,15.21-.22,30.43.07,45.64.54,28.04,9.98,52.83,28.4,74,12.93,14.87,27.45,28.23,41.25,42.28,24.39,24.83,48.89,49.54,73.35,74.3.91.92,1.87,1.8,2.76,2.73,1.64,1.71,4.14,2.4,6.37,1.6,2.52-.9,3.73-3.14,3.98-5.71.23-2.42.18-4.87.17-7.31-.02-16.38.03-32.77-.12-49.15-.23-26.51-8.36-49.94-27.32-69.07-7.66-7.73-13.26-16.57-14.49-27.65-.27-2.41-.27-4.86-.28-7.3-.02-12.48.09-24.97-.02-37.45-.13-14.04-10.7-26.59-24.46-28.76-7.19-1.14-14.2-.19-20.4,4.16-.59.41-1.12,1.11-2.07.98-.56-.99-.26-2.07-.26-3.1.03-13.85.11-27.69.12-41.54,0-1.72.42-3.22,1.14-4.75,6.12-12.93,12.24-25.87,17.48-39.18,5.1-12.98-.97-27.97-13.66-34.9-11.76-6.42-26.52-2.97-35.03,8.01-5.51,7.11-8.52,15.5-12.23,23.52-4.09,8.85-7.93,17.82-11.85,26.75l-13.01,40.16c.07,1.12.11,10.59.1,11.73ZM24.12,144.49c-.02-4.58.83-8.93,2.64-13.05,9.55-21.74,19.1-43.49,29.18-65,.45-.96,1.01-1.9,1.66-2.74,2.59-3.36,6.1-4.49,10.12-3.53,3.69.89,5.92,3.41,7.01,7.1,1.17,3.97-.6,7.29-2.08,10.63-5.16,11.66-10.45,23.26-15.66,34.9-1.03,2.3-2.15,4.59-2.15,7.22.01,22.91,0,45.82.03,68.73,0,4.79,1.36,9.14,5.56,11.94,1.87,1.25,2.38,2.66,2.37,4.81-.09,16.87-.06,33.73-.05,50.6,0,2.62-.15,5.27,1.11,7.73,1.67,3.25,5.16,5.41,8.51,5.18,2.98-.21,5.95-2.58,6.66-5.74.44-1.97.46-4.06.46-6.1,0-14.23-.08-28.47-.06-42.7,0-7.41.07-14.82.27-22.22.14-5.2,3.22-9.05,7.93-10.37,7.55-2.11,14.3,2.89,14.34,10.82.08,15.11-.22,30.23.13,45.33.25,10.98,3.79,21.03,11,29.53,3.28,3.86,6.71,7.6,10.13,11.34,10.49,11.48,16.76,24.94,19.32,40.25,1.94,11.63,1,23.34,1.2,35.01.03,1.7,0,3.4,0,5.17-1.15-.15-1.44-.84-1.88-1.3-8.47-8.76-16.85-17.6-25.4-26.27-20.95-21.23-42.04-42.31-62.95-63.58-18.4-18.72-28.32-41.38-29.27-67.54-.67-18.69-.05-37.43-.15-56.15Z"/>
  </g>
  <g>
    <path class="cls-1" d="M518.31,82.36c-1.87-3.07-4.43-5.44-7.67-7.09-3.24-1.65-7.06-2.47-11.46-2.47-8.13,0-14.54,2.64-19.21,7.91-4.67,5.28-7.01,12.36-7.01,21.27,0,10,2.5,17.62,7.5,22.84,5,5.22,12.28,7.83,21.84,7.83,11.32,0,19.4-5.11,24.23-15.33h-32.48v-23.25h60.34v31.32c-2.53,6.16-6.24,11.93-11.13,17.31-4.89,5.39-11.07,9.81-18.55,13.27-7.48,3.46-15.99,5.19-25.55,5.19-11.65,0-21.96-2.5-30.91-7.5-8.96-5-15.88-11.98-20.77-20.94-4.89-8.96-7.34-19.21-7.34-30.75s2.44-21.62,7.34-30.58c4.89-8.96,11.79-15.93,20.69-20.94,8.9-5,19.18-7.5,30.83-7.5,14.62,0,26.71,3.52,36.27,10.55,9.56,7.03,15.5,16.65,17.81,28.85h-34.79Z"/>
    <path class="cls-1" d="M614.42,71.64c5.16-3.08,10.72-4.62,16.65-4.62v34.46h-9.07c-7.04,0-12.26,1.37-15.66,4.12-3.41,2.75-5.11,7.53-5.11,14.34v40.39h-32.31v-92.49h32.31v16.32c3.63-5.28,8.02-9.45,13.19-12.53Z"/>
    <path class="cls-1" d="M730.48,120.61h-61.16c.33,5.06,1.73,8.82,4.2,11.29,2.47,2.47,5.63,3.71,9.48,3.71,5.38,0,9.23-2.42,11.54-7.25h34.46c-1.43,6.37-4.2,12.06-8.33,17.06-4.12,5-9.31,8.93-15.58,11.79-6.26,2.86-13.19,4.29-20.77,4.29-9.12,0-17.23-1.92-24.32-5.77-7.09-3.84-12.64-9.34-16.65-16.49-4.01-7.14-6.02-15.55-6.02-25.23s1.98-18.05,5.93-25.14c3.96-7.09,9.48-12.55,16.57-16.4,7.09-3.85,15.25-5.77,24.48-5.77s17.2,1.87,24.24,5.61c7.03,3.74,12.53,9.1,16.49,16.07,3.96,6.98,5.94,15.19,5.94,24.65,0,2.53-.17,5.06-.5,7.58ZM698.01,104.95c0-3.96-1.32-7.06-3.96-9.31-2.64-2.25-5.93-3.38-9.89-3.38s-7.2,1.07-9.73,3.21c-2.53,2.14-4.18,5.3-4.95,9.48h28.52Z"/>
    <path class="cls-1" d="M744.09,88.95c3.46-7.14,8.19-12.64,14.18-16.49,5.99-3.85,12.67-5.77,20.03-5.77,6.37,0,11.87,1.26,16.49,3.79,4.62,2.53,8.19,5.93,10.72,10.22v-12.86h32.31v92.49h-32.31v-12.86c-2.53,4.29-6.13,7.69-10.8,10.22-4.67,2.53-10.14,3.79-16.41,3.79-7.36,0-14.04-1.92-20.03-5.77-5.99-3.84-10.72-9.37-14.18-16.57-3.46-7.2-5.19-15.58-5.19-25.14s1.73-17.91,5.19-25.06ZM800.63,100c-3.24-3.41-7.23-5.11-11.95-5.11s-8.85,1.68-12.04,5.03c-3.19,3.35-4.78,8.05-4.78,14.1s1.59,10.63,4.78,14.1c3.19,3.46,7.2,5.2,12.04,5.2s8.71-1.7,11.95-5.11c3.24-3.41,4.86-8.13,4.86-14.18s-1.62-10.61-4.86-14.01Z"/>
    <path class="cls-1" d="M910.85,132.81v27.53h-14.01c-23.63,0-35.45-11.71-35.45-35.12v-30.5h-11.38v-26.87h11.38v-22.42h32.48v22.42h16.82v26.87h-16.82v31c0,2.53.58,4.34,1.73,5.44,1.15,1.1,3.1,1.65,5.85,1.65h9.4Z"/>
    <path class="cls-1" d="M1093.84,67.85l-23.58,92.49h-36.27l-12.86-56.05-13.35,56.05h-36.11l-23.41-92.49h32.15l10.39,61.33,13.68-61.33h34.62l14.18,61.5,10.22-61.5h30.34Z"/>
    <path class="cls-1" d="M1102.99,88.95c3.46-7.14,8.19-12.64,14.18-16.49,5.99-3.85,12.67-5.77,20.03-5.77,6.37,0,11.87,1.26,16.49,3.79,4.62,2.53,8.19,5.93,10.72,10.22v-12.86h32.31v92.49h-32.31v-12.86c-2.53,4.29-6.13,7.69-10.8,10.22-4.67,2.53-10.14,3.79-16.41,3.79-7.36,0-14.04-1.92-20.03-5.77-5.99-3.84-10.72-9.37-14.18-16.57-3.46-7.2-5.19-15.58-5.19-25.14s1.73-17.91,5.19-25.06ZM1159.54,100c-3.24-3.41-7.23-5.11-11.95-5.11s-8.85,1.68-12.04,5.03c-3.19,3.35-4.78,8.05-4.78,14.1s1.59,10.63,4.78,14.1c3.19,3.46,7.2,5.2,12.04,5.2s8.71-1.7,11.95-5.11c3.24-3.41,4.86-8.13,4.86-14.18s-1.62-10.61-4.86-14.01Z"/>
    <path class="cls-1" d="M1247.5,38.34v122h-32.31V38.34h32.31Z"/>
    <path class="cls-1" d="M1298.28,38.34v122h-32.31V38.34h32.31Z"/>
    <path class="cls-1" d="M467.61,321.73c-7.31-3.85-13.05-9.34-17.23-16.49-4.18-7.14-6.26-15.55-6.26-25.23s2.11-17.91,6.35-25.06c4.23-7.14,10-12.64,17.31-16.49,7.31-3.84,15.58-5.77,24.81-5.77s17.5,1.93,24.81,5.77c7.31,3.85,13.08,9.34,17.31,16.49,4.23,7.15,6.35,15.5,6.35,25.06s-2.12,17.95-6.35,25.14c-4.23,7.2-10.03,12.72-17.39,16.57-7.36,3.85-15.66,5.77-24.89,5.77s-17.5-1.92-24.81-5.77ZM503.71,294.44c3.02-3.35,4.53-8.16,4.53-14.43s-1.51-11.05-4.53-14.34c-3.02-3.3-6.73-4.95-11.13-4.95s-8.08,1.65-11.05,4.95c-2.97,3.3-4.45,8.08-4.45,14.34s1.43,11.21,4.29,14.51c2.86,3.3,6.54,4.95,11.05,4.95s8.27-1.67,11.29-5.03Z"/>
    <path class="cls-1" d="M604.2,260.73h-14.51v65.62h-32.48v-65.62h-10.06v-26.87h10.06v-.82c0-11.87,3.49-20.97,10.47-27.29,6.98-6.32,17.01-9.48,30.09-9.48,2.64,0,4.67.06,6.1.16v27.53c-.88-.11-2.09-.16-3.63-.16-3.52,0-6.1.8-7.75,2.39-1.65,1.59-2.58,4.15-2.8,7.67h14.51v26.87Z"/>
    <path class="cls-1" d="M697.76,236.5c4.67,2.53,8.27,5.93,10.8,10.22v-12.86h32.31v91.5c0,8.68-1.65,16.51-4.95,23.49-3.3,6.98-8.44,12.56-15.42,16.73-6.98,4.18-15.8,6.27-26.46,6.27-14.29,0-25.72-3.35-34.29-10.06-8.57-6.71-13.47-15.83-14.67-27.37h31.82c.66,2.97,2.31,5.28,4.95,6.93,2.64,1.65,6.04,2.47,10.22,2.47,10.99,0,16.49-6.16,16.49-18.46v-11.87c-2.53,4.28-6.13,7.69-10.8,10.22-4.67,2.53-10.14,3.79-16.41,3.79-7.36,0-14.04-1.92-20.03-5.77-5.99-3.85-10.72-9.37-14.18-16.57-3.46-7.2-5.19-15.58-5.19-25.14s1.73-17.91,5.19-25.06c3.46-7.14,8.19-12.64,14.18-16.49,5.99-3.84,12.67-5.77,20.03-5.77,6.27,0,11.73,1.27,16.41,3.79ZM703.69,266.01c-3.24-3.41-7.23-5.11-11.95-5.11s-8.85,1.68-12.04,5.03c-3.19,3.35-4.78,8.05-4.78,14.1s1.59,10.63,4.78,14.1c3.19,3.46,7.2,5.19,12.04,5.19s8.71-1.7,11.95-5.11c3.24-3.41,4.86-8.13,4.86-14.18s-1.62-10.6-4.86-14.01Z"/>
    <path class="cls-1" d="M804.84,237.65c5.16-3.08,10.72-4.62,16.65-4.62v34.46h-9.07c-7.04,0-12.26,1.38-15.66,4.12-3.41,2.75-5.11,7.53-5.11,14.34v40.39h-32.31v-92.49h32.31v16.32c3.63-5.28,8.02-9.45,13.19-12.53Z"/>
    <path class="cls-1" d="M832.94,254.96c3.46-7.14,8.19-12.64,14.18-16.49,5.99-3.84,12.67-5.77,20.03-5.77,6.37,0,11.87,1.27,16.49,3.79,4.62,2.53,8.19,5.93,10.72,10.22v-12.86h32.31v92.49h-32.31v-12.86c-2.53,4.28-6.13,7.69-10.8,10.22-4.67,2.53-10.14,3.79-16.41,3.79-7.36,0-14.04-1.92-20.03-5.77-5.99-3.85-10.72-9.37-14.18-16.57-3.46-7.2-5.19-15.58-5.19-25.14s1.73-17.91,5.19-25.06ZM889.49,266.01c-3.24-3.41-7.23-5.11-11.95-5.11s-8.85,1.68-12.04,5.03c-3.19,3.35-4.78,8.05-4.78,14.1s1.59,10.63,4.78,14.1c3.19,3.46,7.2,5.19,12.04,5.19s8.71-1.7,11.95-5.11c3.24-3.41,4.86-8.13,4.86-14.18s-1.62-10.6-4.86-14.01Z"/>
    <path class="cls-1" d="M999.7,298.81v27.53h-14.01c-23.63,0-35.45-11.71-35.45-35.12v-30.5h-11.38v-26.87h11.38v-22.42h32.48v22.42h16.82v26.87h-16.82v31c0,2.53.58,4.34,1.73,5.44,1.15,1.1,3.1,1.65,5.85,1.65h9.4Z"/>
    <path class="cls-1" d="M1017.1,220.59c-3.46-3.13-5.19-7.06-5.19-11.79s1.73-8.84,5.19-12.03c3.46-3.19,8.05-4.78,13.77-4.78s10.14,1.59,13.6,4.78c3.46,3.19,5.19,7.2,5.19,12.03s-1.73,8.66-5.19,11.79c-3.46,3.13-8,4.7-13.6,4.7s-10.3-1.57-13.77-4.7ZM1046.85,233.86v92.49h-32.31v-92.49h32.31Z"/>
    <path class="cls-1" d="M1119.89,298.81v27.53h-14.01c-23.63,0-35.45-11.71-35.45-35.12v-30.5h-11.38v-26.87h11.38v-22.42h32.48v22.42h16.82v26.87h-16.82v31c0,2.53.58,4.34,1.73,5.44,1.15,1.1,3.1,1.65,5.85,1.65h9.4Z"/>
    <path class="cls-1" d="M1229.36,233.86v92.49h-32.48v-13.19c-2.75,4.18-6.54,7.56-11.38,10.14-4.84,2.58-10.39,3.87-16.65,3.87-10.77,0-19.26-3.54-25.47-10.63-6.21-7.09-9.31-16.73-9.31-28.93v-53.75h32.15v49.62c0,5.28,1.4,9.43,4.2,12.45,2.8,3.02,6.51,4.54,11.13,4.54s8.46-1.51,11.21-4.54c2.75-3.02,4.12-7.17,4.12-12.45v-49.62h32.48Z"/>
    <path class="cls-1" d="M1247.74,254.96c3.46-7.14,8.21-12.64,14.26-16.49,6.04-3.84,12.75-5.77,20.11-5.77,5.93,0,11.24,1.24,15.91,3.71,4.67,2.47,8.33,5.85,10.96,10.14v-42.21h32.48v122h-32.48v-12.86c-2.53,4.28-6.1,7.69-10.72,10.22-4.62,2.53-10.06,3.79-16.32,3.79-7.36,0-14.04-1.92-20.03-5.77-5.99-3.85-10.72-9.37-14.18-16.57-3.46-7.2-5.19-15.58-5.19-25.14s1.73-17.91,5.19-25.06ZM1304.29,266.01c-3.24-3.41-7.23-5.11-11.95-5.11s-8.85,1.68-12.04,5.03c-3.19,3.35-4.78,8.05-4.78,14.1s1.59,10.63,4.78,14.1c3.19,3.46,7.2,5.19,12.04,5.19s8.71-1.7,11.95-5.11c3.24-3.41,4.86-8.13,4.86-14.18s-1.62-10.6-4.86-14.01Z"/>
    <path class="cls-1" d="M1447.8,286.62h-61.16c.33,5.06,1.73,8.82,4.2,11.29,2.47,2.47,5.63,3.71,9.48,3.71,5.38,0,9.23-2.42,11.54-7.25h34.46c-1.43,6.38-4.2,12.06-8.33,17.06-4.12,5-9.31,8.93-15.58,11.79-6.26,2.86-13.19,4.29-20.77,4.29-9.12,0-17.23-1.92-24.32-5.77-7.09-3.85-12.64-9.34-16.65-16.49-4.01-7.14-6.02-15.55-6.02-25.23s1.98-18.05,5.93-25.14,9.48-12.56,16.57-16.41c7.09-3.84,15.25-5.77,24.48-5.77s17.2,1.87,24.24,5.61c7.03,3.74,12.53,9.1,16.49,16.07,3.96,6.98,5.94,15.2,5.94,24.65,0,2.53-.17,5.06-.5,7.58ZM1415.32,270.95c0-3.96-1.32-7.06-3.96-9.32-2.64-2.25-5.93-3.38-9.89-3.38s-7.2,1.07-9.73,3.21c-2.53,2.14-4.18,5.3-4.95,9.48h28.52Z"/>
  </g>
</svg>